<svg width="250" height="250" viewBox="0 0 250 250" fill="none" xmlns="http://www.w3.org/2000/svg">
<rect width="250" height="250" fill="black"/>
<path d="M101.511 94.9541C101.642 94.9977 101.816 95.0195 102.034 95.0195H103.604C107.007 95.0195 110.431 94.5615 113.877 93.6455C117.323 92.7295 120.442 91.4645 123.233 89.8506C126.025 88.193 128.293 86.2301 130.038 83.9619C131.783 81.6501 132.655 79.1201 132.655 76.3721C132.655 74.889 132.328 73.5804 131.674 72.4463C131.02 71.2686 130.104 70.2871 128.926 69.502C127.792 68.7168 126.396 68.1279 124.738 67.7354C123.124 67.2992 121.336 67.0811 119.373 67.0811C115.927 67.0811 112.568 67.5173 109.297 68.3896C106.025 69.262 102.95 70.4616 100.071 71.9883C97.1924 73.4714 94.5534 75.238 92.1543 77.2881C89.7552 79.2946 87.6833 81.4974 85.9385 83.8965C84.1937 86.252 82.8415 88.7165 81.8818 91.29C80.9222 93.8636 80.4424 96.4372 80.4424 99.0107C80.4424 101.584 80.9222 104.027 81.8818 106.339C84.8916 106.426 87.7051 106.644 90.3223 106.993C92.9395 107.342 95.2077 107.887 97.127 108.629C99.0462 109.327 100.551 110.243 101.642 111.377C102.732 112.511 103.277 113.885 103.277 115.499C103.277 117.244 102.623 118.574 101.314 119.49C100.006 120.406 98.3701 120.864 96.4072 120.864C94.8369 120.864 93.223 120.603 91.5654 120.079C89.9079 119.556 88.2939 118.836 86.7236 117.92C85.1969 116.96 83.7139 115.826 82.2744 114.518C80.8786 113.165 79.6136 111.682 78.4795 110.068C73.6377 110.461 69.1449 111.595 65.001 113.471C60.9007 115.303 57.3457 117.702 54.3359 120.668C51.3698 123.59 49.0361 126.971 47.335 130.81C45.6338 134.604 44.7832 138.618 44.7832 142.849C44.7832 146.295 45.3503 149.413 46.4844 152.205C47.6621 154.953 49.3851 157.309 51.6533 159.271C53.9652 161.234 56.8223 162.739 60.2246 163.786C63.6706 164.833 67.64 165.356 72.1328 165.356C77.1055 165.356 81.8164 164.593 86.2656 163.066C90.7585 161.583 94.9023 159.686 98.6973 157.374C102.492 155.062 105.938 152.532 109.035 149.784C112.132 146.993 114.815 144.354 117.083 141.867C119.395 139.381 121.249 137.2 122.645 135.324C124.04 133.405 124.956 132.162 125.393 131.595L127.748 133.427C126.745 134.866 125.393 136.764 123.691 139.119C121.99 141.431 119.918 143.896 117.476 146.513C115.076 149.13 112.285 151.769 109.101 154.43C105.96 157.047 102.427 159.424 98.501 161.562C94.6188 163.699 90.3659 165.422 85.7422 166.73C81.1185 168.083 76.124 168.759 70.7588 168.759C64.8701 168.759 59.7884 168.017 55.5137 166.534C51.2389 165.051 47.6839 163.045 44.8486 160.515C42.057 158.028 39.985 155.149 38.6328 151.878C37.2806 148.563 36.6045 145.073 36.6045 141.409C36.6045 138.836 36.9316 136.218 37.5859 133.558C38.2402 130.897 39.2435 128.301 40.5957 125.771C41.9479 123.242 43.6927 120.842 45.8301 118.574C47.9674 116.306 50.4974 114.299 53.4199 112.555C56.3424 110.81 59.7012 109.392 63.4961 108.302C67.291 107.211 71.5439 106.557 76.2549 106.339C75.4697 104.769 74.859 103.133 74.4229 101.432C73.9867 99.6868 73.7686 97.8984 73.7686 96.0664C73.7686 92.7077 74.3356 89.5452 75.4697 86.5791C76.6038 83.5693 78.1523 80.8213 80.1152 78.335C82.1217 75.805 84.4554 73.5586 87.1162 71.5957C89.8206 69.6328 92.6995 67.9753 95.7529 66.623C98.8063 65.2272 101.969 64.1803 105.24 63.4824C108.555 62.7409 111.827 62.3701 115.055 62.3701C118.37 62.3701 121.314 62.7191 123.888 63.417C126.505 64.0713 128.708 65.0091 130.496 66.2305C132.285 67.4518 133.659 68.9349 134.618 70.6797C135.578 72.3809 136.058 74.2565 136.058 76.3066C136.058 78.5749 135.578 80.7122 134.618 82.7188C133.702 84.7253 132.437 86.5573 130.823 88.2148C129.253 89.8288 127.399 91.29 125.262 92.5986C123.168 93.8636 120.922 94.9323 118.522 95.8047C116.167 96.6771 113.724 97.3532 111.194 97.833C108.664 98.2692 106.222 98.4873 103.866 98.4873C103.081 98.4873 102.449 98.4655 101.969 98.4219C101.489 98.3783 101.205 98.3564 101.118 98.3564L101.511 94.9541ZM99.8096 115.368C99.8096 114.321 99.3298 113.471 98.3701 112.816C97.4541 112.118 96.2327 111.573 94.7061 111.181C93.223 110.788 91.5218 110.505 89.6025 110.33C87.7269 110.112 85.8076 109.981 83.8447 109.938C84.6735 111.159 85.5895 112.249 86.5928 113.209C87.6396 114.125 88.7083 114.91 89.7988 115.564C90.8893 116.219 91.9798 116.72 93.0703 117.069C94.2044 117.418 95.2731 117.593 96.2764 117.593C97.4541 117.593 98.3265 117.375 98.8936 116.938C99.5042 116.502 99.8096 115.979 99.8096 115.368ZM204.17 145.531C202.338 145.051 200.506 144.593 198.674 144.157C196.885 143.677 195.053 143.241 193.178 142.849C190.953 147.385 188.598 151.834 186.111 156.196C183.625 160.558 180.986 164.855 178.194 169.086C176.057 172.314 173.658 175.476 170.997 178.573C168.38 181.67 165.588 184.571 162.622 187.275C159.7 190.023 156.646 192.532 153.462 194.8C150.321 197.112 147.137 199.096 143.909 200.754C140.725 202.455 137.541 203.764 134.356 204.68C131.216 205.596 128.162 206.054 125.196 206.054C122.535 206.054 119.853 205.574 117.148 204.614C114.444 203.698 112.023 202.302 109.886 200.427C107.705 198.551 105.938 196.196 104.586 193.36C103.234 190.569 102.558 187.275 102.558 183.48C102.558 181.518 102.798 179.446 103.277 177.265C103.714 175.084 104.455 172.837 105.502 170.525C106.549 168.214 107.901 165.836 109.559 163.394C111.216 160.994 113.244 158.53 115.644 156C118.828 152.641 122.405 149.741 126.374 147.298C130.3 144.855 134.487 142.849 138.937 141.278C143.386 139.664 148.031 138.487 152.873 137.745C157.715 136.96 162.622 136.567 167.595 136.567C170.866 136.567 174.116 136.72 177.344 137.025C180.615 137.331 183.887 137.767 187.158 138.334C189.47 133.536 191.564 128.759 193.439 124.005C195.315 119.25 196.951 114.561 198.347 109.938C200.44 102.871 201.945 96.7425 202.861 91.5518C203.777 86.361 204.235 81.8682 204.235 78.0732C204.235 74.8454 203.974 72.0755 203.45 69.7637C202.927 67.4082 202.251 65.4235 201.422 63.8096C200.593 62.152 199.633 60.8216 198.543 59.8184C197.452 58.7715 196.34 57.9863 195.206 57.4629C194.116 56.8958 193.025 56.5251 191.935 56.3506C190.888 56.1325 189.95 56.0234 189.121 56.0234C185.632 56.0234 182.513 56.8522 179.765 58.5098C177.017 60.1673 174.683 62.501 172.764 65.5107C170.888 68.5205 169.449 72.1628 168.445 76.4375C167.442 80.6686 166.94 85.3796 166.94 90.5703C166.94 94.627 167.289 98.3783 167.987 101.824C168.685 105.27 169.558 108.411 170.604 111.246C171.651 114.081 172.785 116.59 174.007 118.771C175.272 120.951 176.428 122.784 177.475 124.267C178.565 125.75 179.459 126.884 180.157 127.669C180.855 128.454 181.226 128.847 181.27 128.847L179.241 130.94C176.45 128.541 173.832 125.881 171.39 122.958C168.947 120.035 166.831 116.895 165.043 113.536C163.255 110.177 161.837 106.622 160.79 102.871C159.743 99.0762 159.22 95.1068 159.22 90.9629C159.22 86.252 159.896 81.6064 161.248 77.0264C162.6 72.4463 164.563 68.346 167.137 64.7256C169.71 61.0615 172.873 58.1172 176.624 55.8926C180.375 53.668 184.65 52.5557 189.448 52.5557C190.539 52.5557 191.804 52.6647 193.243 52.8828C194.683 53.1009 196.166 53.5589 197.692 54.2568C199.219 54.9111 200.724 55.849 202.207 57.0703C203.734 58.2917 205.064 59.9274 206.198 61.9775C207.376 63.984 208.314 66.4704 209.012 69.4365C209.753 72.359 210.124 75.8704 210.124 79.9707C210.124 81.8464 210.037 83.8529 209.862 85.9902C209.688 88.084 209.426 90.3522 209.077 92.7949C207.856 100.908 206.024 108.891 203.581 116.742C201.138 124.55 198.15 132.249 194.617 139.839C196.449 140.231 198.238 140.646 199.982 141.082C201.727 141.518 203.45 141.976 205.151 142.456L204.17 145.531ZM125.131 202.651C128.402 202.826 131.805 202.193 135.338 200.754C138.871 199.314 142.426 197.221 146.003 194.473C149.58 191.768 153.135 188.497 156.668 184.658C160.245 180.82 163.713 176.61 167.071 172.03C170.474 167.45 173.723 162.587 176.82 157.439C179.961 152.292 182.883 147.014 185.588 141.605C183.363 141.3 181.139 141.06 178.914 140.886C176.733 140.711 174.487 140.624 172.175 140.624C165.37 140.624 159.067 141.387 153.266 142.914C147.508 144.441 142.252 146.469 137.497 148.999C132.786 151.529 128.62 154.43 125 157.701C121.38 160.973 118.348 164.331 115.905 167.777C113.463 171.267 111.609 174.713 110.344 178.115C109.079 181.561 108.446 184.702 108.446 187.537C108.446 189.762 108.839 191.79 109.624 193.622C110.366 195.498 111.456 197.09 112.896 198.398C114.291 199.751 116.036 200.798 118.13 201.539C120.18 202.281 122.514 202.651 125.131 202.651Z" fill="white"/>
</svg>
